<svg xmlns="http://www.w3.org/2000/svg" width="46" height="45" viewBox="0 0 46 45">
    <defs>
        <filter id="84wzta0n1a">
            <feColorMatrix in="SourceGraphic" values="0 0 0 0 0.537255 0 0 0 0 0.537255 0 0 0 0 0.537255 0 0 0 1.000000 0"/>
        </filter>
    </defs>
    <g fill="none" fillRule="evenodd">
        <g filter="url(#84wzta0n1a)" transform="translate(-704 -821)">
            <g>
                <path fill="#121D26" fillRule="nonzero" d="M9.47 36.302l1.427.39c.075-.274.069-.565-.017-.836-.087-.272-.25-.513-.469-.694l-.941 1.14zM7.667 42.92l-1.426-.388c-.074.273-.069.56.016.83.084.27.243.509.46.69.215.182.478.298.758.335.28.037.564-.007.82-.126l-.628-1.34zm7.208-3.377l.556-1.37c-.188-.077-.39-.115-.595-.11-.203.006-.404.053-.589.139l.628 1.34zm5.147-20.303l.888-1.184-.867-.651-.882.63.861 1.205zm5.92 4.44l-.888 1.184.936.702.9-.75-.948-1.136zM22.982 0C10.784 0 .782 9.475.782 21.3h2.96c0-10.067 8.552-18.34 19.24-18.34V0zM.782 21.3c0 6.477 3.028 12.252 7.747 16.144l1.882-2.282C6.318 31.788 3.742 26.824 3.742 21.3H.782zM8.04 35.914l-1.8 6.618 2.857.776 1.8-6.616-2.857-.778zm.255 8.347l7.207-3.38-1.255-2.679-7.207 3.377 1.255 2.682zm6.023-3.348c2.664 1.084 5.595 1.688 8.664 1.688v-2.96c-2.587.003-5.15-.496-7.548-1.469l-1.116 2.741zm8.664 1.688c12.199 0 22.2-9.478 22.2-21.3h-2.96c0 10.063-8.551 18.337-19.24 18.337V42.6zm22.2-21.304C45.182 9.472 35.181 0 22.982 0v2.96c10.689 0 19.24 8.273 19.24 18.34h2.96v-.003zm-34.661 6.545l10.36-7.4-1.717-2.407-10.36 7.4 1.717 2.41v-.003zm8.613-7.418l5.92 4.44 1.776-2.368-5.92-4.44-1.776 2.368zm7.756 4.393l8.88-7.4-1.895-2.274-8.88 7.4 1.895 2.274z" transform="translate(704 821)"/>
            </g>
        </g>
    </g>
</svg>
